<?xml version="1.0" standalone="no"?>
<!DOCTYPE svg PUBLIC "-//W3C//DTD SVG 20010904//EN"
 "http://www.w3.org/TR/2001/REC-SVG-20010904/DTD/svg10.dtd">
<svg version="1.0" xmlns="http://www.w3.org/2000/svg"
 width="710.000000pt" height="710.000000pt" viewBox="0 0 710.000000 710.000000"
 preserveAspectRatio="xMidYMid meet">
<metadata>
Created by potrace 1.11, written by Peter Selinger 2001-2013
</metadata>
<g transform="translate(0.000000,710.000000) scale(0.100000,-0.100000)"
fill="#000000" stroke="none">
<path d="M5430 6242 c-42 -6 -180 -52 -249 -83 -370 -168 -854 -652 -1071
-1071 l-45 -87 -110 -35 c-174 -56 -283 -80 -485 -111 -230 -35 -611 -41 -750
-11 -46 9 -111 27 -145 38 -336 114 -560 307 -650 561 -44 124 -44 125 -63
132 -59 22 -62 -129 -6 -298 40 -119 275 -329 463 -411 204 -90 420 -129 716
-130 320 -1 594 45 883 149 41 14 76 24 78 22 3 -2 -31 -76 -75 -163 -43 -88
-95 -193 -114 -234 -19 -41 -56 -120 -82 -175 -59 -124 -176 -375 -222 -475
-106 -230 -276 -558 -426 -820 -299 -524 -477 -779 -755 -1079 -54 -57 -110
-118 -125 -135 -16 -17 -54 -57 -85 -89 -54 -56 -58 -59 -94 -53 -21 4 -91 31
-156 62 -225 107 -244 116 -276 121 -58 9 -124 -41 -197 -148 -40 -60 -79
-160 -79 -206 0 -53 53 -119 120 -149 80 -36 281 5 389 80 38 25 62 35 80 33
14 -3 127 -54 251 -114 124 -61 252 -120 285 -133 33 -13 121 -51 195 -86 296
-136 663 -244 950 -280 19 -2 49 -6 66 -9 136 -20 623 -28 784 -13 267 25 416
66 617 167 81 40 262 157 294 190 9 9 37 35 62 59 41 39 87 115 102 169 19 69
12 82 -35 63 -30 -12 -44 -41 -54 -108 -10 -69 -122 -173 -281 -262 -187 -103
-366 -156 -595 -176 -135 -12 -550 1 -650 20 -14 3 -41 7 -60 10 -31 5 -151
28 -205 40 -443 97 -1015 332 -1474 603 -10 7 -4 15 26 35 101 67 339 296 456
441 21 25 43 52 50 59 30 30 182 224 274 348 174 235 273 380 378 555 330 553
529 982 846 1829 19 53 23 57 87 87 684 323 892 462 1089 727 129 173 214 397
189 496 -10 39 -54 57 -116 48z m53 -65 c9 -24 -6 -118 -33 -198 -35 -103
-139 -261 -255 -386 -196 -213 -553 -427 -853 -511 l-73 -21 7 22 c31 98 90
206 176 322 5 6 47 64 94 130 203 281 325 401 514 502 214 115 408 179 423
140z m-3862 -4508 c47 -31 111 -75 143 -97 l58 -41 -43 -22 c-146 -74 -330
-89 -376 -30 -14 18 -10 64 9 108 17 39 78 137 91 145 13 8 8 10 118 -63z"/>
</g>
</svg>
